<svg xmlns="http://www.w3.org/2000/svg" version="1.1" xmlns:xlink="http://www.w3.org/1999/xlink" xmlns:svgjs="http://svgjs.dev/svgjs" width="1500" height="1640" viewBox="0 0 1500 1640"><g transform="matrix(1,0,0,1,-0.9090909090909918,-1.1757120862200736)"><svg viewBox="0 0 396 433" data-background-color="#ed2647" preserveAspectRatio="xMidYMid meet" height="1640" width="1500" xmlns="http://www.w3.org/2000/svg" xmlns:xlink="http://www.w3.org/1999/xlink"><g id="tight-bounds" transform="matrix(1,0,0,1,0.2400000000000091,92.89999999999998)"><svg viewBox="0 0 395.52 247.2" height="247.2" width="395.52"><g><svg></svg></g><g><svg viewBox="0 0 395.52 247.2" height="247.2" width="395.52"><g transform="matrix(1,0,0,1,154.34340717131474,47.215199999999996)"><svg viewBox="0 0 86.8331856573705 152.7696" height="152.7696" width="86.8331856573705"><g><svg viewBox="0 0 86.8331856573705 152.7696" height="152.7696" width="86.8331856573705"><g><svg viewBox="0 0 86.8331856573705 152.7696" height="152.7696" width="86.8331856573705"><g><svg viewBox="0 0 86.8331856573705 152.7696" height="152.7696" width="86.8331856573705"><g id="textblocktransform"><svg viewBox="0 0 86.8331856573705 152.7696" height="152.7696" width="86.8331856573705" id="textblock"><g><svg viewBox="0 0 86.8331856573705 152.7696" height="152.7696" width="86.8331856573705"><g transform="matrix(1,0,0,1,0,0)"><svg width="86.8331856573705" viewBox="3.96 -36.57 20.89 36.77" height="152.7696" data-palette-color="#ffffff"><path d="M24.85-9.86L24.85-9.86Q24.85-7.91 24.05-6.08 23.24-4.25 21.78-2.86 20.31-1.46 18.16-0.63 16.02 0.2 13.28 0.2L13.28 0.2Q12.11 0.2 10.86 0.07 9.62-0.05 8.35-0.34 7.08-0.63 5.93-1.15 4.79-1.66 3.96-2.39L3.96-2.39 4.98-6.59Q5.66-6.2 6.71-5.83 7.76-5.47 8.89-5.15 10.01-4.83 11.13-4.64 12.26-4.44 13.23-4.44L13.23-4.44Q16.21-4.44 17.8-5.83 19.38-7.23 19.38-9.96L19.38-9.96Q19.38-11.62 18.26-12.79 17.14-13.96 15.45-14.92 13.77-15.87 11.82-16.82 9.86-17.77 8.15-19.07 6.45-20.36 5.32-22.12 4.2-23.88 4.2-26.51L4.2-26.51Q4.2-28.91 5.08-30.76 5.96-32.62 7.45-33.91 8.94-35.21 10.91-35.89 12.89-36.57 15.09-36.57L15.09-36.57Q17.33-36.57 19.63-36.16 21.92-35.74 23.34-34.81L23.34-34.81Q23.05-34.18 22.66-33.42 22.27-32.67 21.92-32.01 21.58-31.35 21.34-30.91 21.09-30.47 21.04-30.42L21.04-30.42Q20.75-30.57 20.39-30.81 20.02-31.05 19.34-31.3 18.65-31.54 17.53-31.64 16.41-31.74 14.65-31.59L14.65-31.59Q13.67-31.49 12.79-31.03 11.91-30.57 11.23-29.88 10.55-29.2 10.16-28.34 9.77-27.49 9.77-26.71L9.77-26.71Q9.77-24.76 10.89-23.56 12.01-22.36 13.67-21.46 15.33-20.56 17.29-19.7 19.24-18.85 20.92-17.63 22.61-16.41 23.73-14.58 24.85-12.74 24.85-9.86Z" opacity="1" transform="matrix(1,0,0,1,0,0)" fill="#ffffff" class="wordmark-text-0" data-fill-palette-color="primary" id="text-0"></path></svg></g></svg></g></svg></g></svg></g><g></g></svg></g></svg></g></svg></g><g><path d="M94.03 11.15A43.417 43.417 0 0 1 301.49 11.15L287.714 11.15A29.64 29.64 0 0 0 107.806 11.15L94.03 11.15M94.03 236.05A43.417 43.417 0 0 0 301.49 236.05L287.714 236.05A29.64 29.64 0 0 1 107.806 236.05L94.03 236.05" fill="#ffffff" stroke="transparent" data-fill-palette-color="tertiary"></path></g></svg></g><defs></defs></svg><rect width="395.52" height="247.2" fill="none" stroke="none" visibility="hidden"></rect></g></svg></g></svg>